HIERARCHY
ROOT Hips
{
	OFFSET	0.00	0.00	0.00
	CHANNELS 6 Xposition Yposition Zposition Zrotation Xrotation Yrotation
	JOINT LeftUpLeg
	{
		OFFSET	 0.126116	-0.065224	 0.014019
		CHANNELS 3 Zrotation Xrotation Yrotation
		JOINT LeftLeg
		{
			OFFSET	 0.000000	 0.569914	 0.000000
			CHANNELS 3 Zrotation Xrotation Yrotation
			JOINT LeftFoot
			{
				OFFSET	 0.000000	 0.544423	 0.000000
				CHANNELS 3 Zrotation Xrotation Yrotation
				JOINT LeftToeBase
				{
					OFFSET	 0.000000	 0.207117	 0.000000
					CHANNELS 3 Zrotation Xrotation Yrotation
					End Site
					{
						OFFSET	 0.000000	 0.207117	 0.000000
					}
				}
			}
		}
	}
	JOINT RightUpLeg
	{
		OFFSET	-0.124023	-0.065224	 0.008373
		CHANNELS 3 Zrotation Xrotation Yrotation
		JOINT RightLeg
		{
			OFFSET	 0.000000	 0.570047	 0.000000
			CHANNELS 3 Zrotation Xrotation Yrotation
			JOINT RightFoot
			{
				OFFSET	 0.000000	 0.544354	 0.000000
				CHANNELS 3 Zrotation Xrotation Yrotation
				JOINT RightToeBase
				{
					OFFSET	 0.000000	 0.207540	 0.000000
					CHANNELS 3 Zrotation Xrotation Yrotation
					End Site
					{
						OFFSET	 0.000000	 0.207540	 0.000000
					}
				}
			}
		}
	}
	JOINT Spine
	{
		OFFSET	 0.000184	 0.117403	 0.007763
		CHANNELS 3 Zrotation Xrotation Yrotation
		JOINT Spine1
		{
			OFFSET	 0.000000	 0.137269	 0.000000
			CHANNELS 3 Zrotation Xrotation Yrotation
			JOINT Spine2
			{
				OFFSET	 0.000000	 0.156879	 0.000000
				CHANNELS 3 Zrotation Xrotation Yrotation
				JOINT LeftShoulder
				{
					OFFSET	 0.080501	 0.160143	 0.002496
					CHANNELS 3 Zrotation Xrotation Yrotation
					JOINT LeftArm
					{
						OFFSET	 0.000000	 0.164363	 0.000000
						CHANNELS 3 Zrotation Xrotation Yrotation
						JOINT LeftForeArm
						{
							OFFSET	 0.000000	 0.364576	 0.000000
							CHANNELS 3 Zrotation Xrotation Yrotation
							JOINT LeftHand
							{
								OFFSET	 0.000000	 0.360812	 0.000000
								CHANNELS 3 Zrotation Xrotation Yrotation
								JOINT LeftHandIndex1
								{
									OFFSET	 0.000000	 0.086006	 0.000000
									CHANNELS 3 Zrotation Xrotation Yrotation
									JOINT LeftHandIndex2
									{
										OFFSET	 0.000000	 0.047237	 0.000000
										CHANNELS 3 Zrotation Xrotation Yrotation
										JOINT LeftHandIndex3
										{
											OFFSET	-0.004284	 0.038165	 0.000551
											CHANNELS 3 Zrotation Xrotation Yrotation
											End Site
											{
												OFFSET	-0.004284	 0.038165	 0.000551
											}
										}
									}
								}
							}
						}
					}
				}
				JOINT Neck
				{
					OFFSET	 0.000000	 0.176489	 0.000000
					CHANNELS 3 Zrotation Xrotation Yrotation
					JOINT Head
					{
						OFFSET	 0.000000	 0.077941	 0.001747
						CHANNELS 3 Zrotation Xrotation Yrotation
						End Site
						{
							OFFSET	 0.000000	 0.077941	 0.001747
						}
					}
				}
				JOINT RightShoulder
				{
					OFFSET	-0.080363	 0.159706	-0.000306
					CHANNELS 3 Zrotation Xrotation Yrotation
					JOINT RightArm
					{
						OFFSET	 0.000000	 0.164196	 0.000000
						CHANNELS 3 Zrotation Xrotation Yrotation
						JOINT RightForeArm
						{
							OFFSET	 0.000000	 0.365611	 0.000000
							CHANNELS 3 Zrotation Xrotation Yrotation
							JOINT RightHand
							{
								OFFSET	 0.000000	 0.360648	 0.000000
								CHANNELS 3 Zrotation Xrotation Yrotation
								JOINT RightHandIndex1
								{
									OFFSET	 0.000000	 0.069977	 0.000000
									CHANNELS 3 Zrotation Xrotation Yrotation
									JOINT RightHandIndex2
									{
										OFFSET	 0.000000	 0.052305	 0.000000
										CHANNELS 3 Zrotation Xrotation Yrotation
										JOINT RightHandIndex3
										{
											OFFSET	 0.009002	 0.042196	 0.000782
											CHANNELS 3 Zrotation Xrotation Yrotation
											End Site
											{
												OFFSET	 0.009002	 0.042196	 0.000782
											}
										}
									}
								}
							}
						}
					}
				}
			}
		}
	}
}
MOTION
Frames:    7
Frame Time: 0.03333334
-0.000808	 1.269672	-0.008669	-0.085341	 3.238902	 178.807400	-178.277300	 3.079875	-15.365630	 3.040831	-15.040030	 2.862330	-5.236792	 69.384000	 6.723184	 1.331492	 28.938720	-2.729976	 177.742500	 4.209957	 18.884560	-5.113692	-16.386170	-6.466815	 2.584759	 70.406660	-1.757517	-1.305362	 28.580660	 2.604152	-1.227383	 3.894953	 6.568364	-1.464398	 2.037886	 2.654812	-1.320205	 0.570475	-12.255290	-113.447100	 5.125322	 92.999910	 12.833820	 52.447750	 32.768550	 9.456390	-0.482452	-0.161874	 9.371490	-26.636000	 9.619160	-6.580301	 5.266122	 0.000000	 0.000000	 0.000000	 0.000000	 0.000000	 0.000000	 0.000000	 3.832058	-0.648989	-0.250790	 3.223040	 0.872800	-1.449849	 114.205400	-4.426058	-88.484170	-88.142780	-15.492530	 39.097480	-77.786940	-2.198578	-1.599727	-12.205900	-28.169730	-66.558580	-0.359781	 10.582430	 0.744568	 11.977790	 9.317299	-2.096063	-8.359142	 3.150330	 0.104225
-0.000706	 1.270046	-0.008779	-0.068648	 3.241511	 178.773900	-178.225000	 3.076376	-15.601890	 3.044406	-15.056920	 2.848066	-5.270576	 69.317500	 6.755101	 1.331492	 28.938720	-2.729976	 177.738700	 4.198348	 19.065140	-5.108807	-16.371420	-6.490266	 2.521242	 70.345320	-1.685824	-1.305372	 28.580720	 2.601545	-1.179605	 3.905221	 5.849426	-1.455974	 2.035158	 2.671886	-1.324835	 0.567796	-12.249480	-113.447200	 5.119782	 92.998660	 12.348470	 52.250190	 33.186210	 10.449230	-0.520049	-0.483283	 9.064382	-27.250440	 9.477640	-6.580301	 5.266122	 0.000000	 0.000000	 0.000000	 0.000000	 0.000000	 0.000000	 0.000000	 3.841054	-0.669625	-0.253591	 3.256894	 0.884642	-1.469190	 114.203800	-4.415079	-88.492110	-87.794500	-15.844720	 38.408770	-78.571360	-2.194979	-1.299631	-12.041070	-27.153210	-65.570100	-0.359779	 10.582370	 0.744568	 11.977790	 9.317243	-2.096051	-8.359141	 3.150301	 0.104227
-0.000538	 1.270424	-0.008943	-0.045659	 3.245273	 178.727400	-178.161300	 3.071335	-15.853900	 3.049109	-15.079130	 2.828287	-5.325474	 69.251790	 6.805083	 1.331492	 28.938720	-2.729976	 177.746100	 4.181709	 19.240120	-5.102030	-16.350890	-6.522957	 2.432184	 70.287100	-1.585887	-1.305386	 28.580800	 2.597933	-1.113541	 3.918539	 4.852003	-1.450158	 2.029166	 2.693915	-1.328537	 0.565143	-12.241480	-113.447300	 5.112150	 92.996990	 11.875060	 52.060130	 33.606210	 11.573920	-0.559154	-0.929745	 8.740758	-28.121530	 9.287496	-6.580301	 5.266122	 0.000000	 0.000000	 0.000000	 0.000000	 0.000000	 0.000000	 0.000000	 3.853515	-0.698221	-0.257466	 3.303818	 0.901026	-1.496033	 114.201600	-4.399901	-88.503100	-87.467140	-16.365030	 37.408670	-79.721120	-2.189780	-0.886436	-11.758260	-25.793260	-64.253140	-0.359777	 10.582300	 0.744568	 11.977790	 9.317168	-2.096036	-8.359140	 3.150261	 0.104231
-0.000293	 1.270792	-0.009172	-0.017306	 3.249979	 178.669700	-178.087500	 3.064357	-16.113860	 3.054616	-15.105120	 2.803680	-5.400397	 69.188160	 6.871414	 1.331492	 28.938720	-2.729976	 177.765100	 4.160374	 19.404590	-5.093816	-16.326070	-6.563860	 2.319463	 70.235050	-1.460748	-1.305404	 28.580900	 2.593436	-1.031300	 3.933605	 3.609845	-1.452651	 2.017669	 2.719332	-1.328423	 0.563386	-12.231440	-113.447500	 5.102603	 92.994910	 11.423360	 51.884640	 34.019620	 12.811460	-0.599339	-1.485712	 8.391529	-29.219080	 9.056907	-6.580301	 5.266122	 0.000000	 0.000000	 0.000000	 0.000000	 0.000000	 0.000000	 0.000000	 3.869026	-0.733821	-0.262281	 3.362256	 0.921400	-1.529479	 114.198800	-4.380995	-88.516780	-87.289290	-17.073860	 36.115430	-81.217850	-2.182484	-0.375026	-11.333310	-24.160680	-62.658060	-0.359774	 10.582200	 0.744568	 11.977790	 9.317073	-2.096017	-8.359138	 3.150211	 0.104236
 0.000056	 1.271165	-0.009487	 0.017397	 3.255661	 178.598700	-178.000300	 3.054827	-16.391130	 3.060996	-15.135180	 2.773468	-5.498343	 69.123770	 6.956024	 1.331492	 28.938720	-2.729976	 177.797600	 4.133117	 19.564520	-5.083859	-16.295940	-6.614616	 2.177439	 70.188100	-1.305137	-1.305425	 28.581020	 2.587897	-0.930283	 3.949828	 2.081486	-1.467368	 1.998416	 2.748176	-1.322706	 0.563433	-12.219120	-113.447600	 5.090877	 92.992350	 10.979700	 51.720730	 34.438330	 14.214030	-0.642387	-2.169512	 7.989232	-30.577700	 8.780775	-6.580301	 5.266122	 0.000000	 0.000000	 0.000000	 0.000000	 0.000000	 0.000000	 0.000000	 3.888130	-0.777678	-0.268200	 3.434288	 0.946447	-1.570746	 114.195400	-4.357722	-88.533600	-87.390910	-18.029880	 34.477310	-83.111920	-2.171604	 0.251735	-10.738830	-22.225420	-60.718040	-0.359770	 10.582080	 0.744568	 11.977790	 9.316957	-2.095994	-8.359137	 3.150150	 0.104242
 0.000510	 1.271532	-0.009895	 0.057475	 3.262270	 178.516000	-177.901400	 3.041922	-16.678480	 3.067858	-15.167480	 2.738359	-5.617407	 69.059750	 7.056742	 1.331492	 28.938720	-2.729976	 177.843600	 4.099733	 19.715780	-5.072362	-16.261110	-6.674181	 2.008209	 70.148300	-1.121926	-1.305450	 28.581170	 2.581449	-0.813405	 3.965458	 0.309661	-1.497395	 1.969330	 2.779954	-1.309893	 0.566611	-12.204740	-113.447900	 5.077236	 92.989360	 10.562730	 51.577560	 34.847100	 15.745110	-0.686931	-2.963139	 7.535622	-32.155400	 8.470061	-6.580301	 5.266122	 0.000000	 0.000000	 0.000000	 0.000000	 0.000000	 0.000000	 0.000000	 3.910363	-0.828731	-0.275072	 3.518189	 0.975546	-1.618871	 114.191500	-4.330603	-88.553210	-87.900630	-19.220430	 32.542000	-85.324810	-2.156029	 0.979055	-10.024910	-20.066310	-58.448300	-0.359766	 10.581950	 0.744568	 11.977790	 9.316823	-2.095966	-8.359134	 3.150079	 0.104249
 0.001079	 1.271899	-0.010413	 0.103579	 3.269609	 178.420500	-177.789200	 3.025457	-16.980020	 3.075423	-15.203160	 2.697968	-5.759256	 68.995800	 7.174776	 1.331492	 28.938720	-2.729976	 177.903600	 4.059290	 19.860630	-5.059025	-16.220730	-6.743465	 1.809504	 70.115330	-0.908533	-1.305479	 28.581330	 2.574006	-0.679540	 3.979110	-1.718349	-1.543927	 1.928916	 2.816746	-1.289310	 0.573181	-12.188090	-113.448100	 5.061443	 92.985890	 10.179840	 51.459250	 35.241000	 17.410310	-0.732776	-3.874990	 7.028884	-33.955550	 8.128820	-6.580301	 5.266122	 0.000000	 0.000000	 0.000000	 0.000000	 0.000000	 0.000000	 0.000000	 3.936018	-0.887663	-0.282979	 3.615104	 1.009052	-1.674546	 114.187000	-4.299302	-88.575830	-88.904430	-20.616970	 30.316950	-87.832940	-2.133925	 1.816640	-9.298583	-17.699090	-55.768430	-0.359761	 10.581790	 0.744568	 11.977790	 9.316667	-2.095935	-8.359130	 3.149996	 0.104256
